<svg version="1.0" xmlns="http://www.w3.org/2000/svg"
     width="1000.000000pt" height="1000.000000pt" viewBox="0 0 1000.000000 1000.000000"
     preserveAspectRatio="xMidYMid meet">

  <g transform="translate(0.000000,1000.000000) scale(0.100000,-0.100000)"
     fill="#000000" stroke="none">
    <path d="M0 5000 l0 -5000 5000 0 5000 0 0 5000 0 5000 -5000 0 -5000 0 0
-5000z m4824 3140 c66 -25 130 -85 159 -148 31 -67 30 -180 -2 -242 -34 -67
-2657 -2691 -2726 -2728 -66 -35 -176 -38 -247 -5 -142 65 -207 245 -139 385
15 31 399 421 1363 1385 1266 1264 1346 1342 1393 1357 70 21 135 19 199 -4z
m1592 -13 c97 -49 145 -125 152 -238 9 -150 209 64 -2156 -2301 -2365 -2365
-2151 -2165 -2301 -2156 -112 7 -188 55 -239 152 -37 70 -38 189 -3 256 16 32
633 656 2124 2148 1156 1157 2117 2112 2136 2124 89 56 196 62 287 15z m1538
13 c66 -25 130 -85 159 -148 33 -72 30 -181 -6 -248 -39 -71 -5792 -5822
-5857 -5855 -62 -32 -175 -33 -242 -2 -142 65 -207 245 -139 385 15 31 820
842 2928 2950 2757 2756 2911 2907 2958 2922 70 21 135 19 199 -4z m23 -1573
c54 -29 103 -77 131 -131 22 -43 27 -64 27 -131 0 -69 -4 -87 -28 -131 -39
-70 -4222 -4252 -4287 -4285 -67 -35 -186 -34 -256 3 -97 51 -145 127 -152
239 -9 150 -209 -64 2156 2301 2354 2355 2149 2162 2297 2155 49 -2 92 -10
112 -20z m-5 -1565 c94 -41 168 -154 168 -256 0 -23 -7 -67 -16 -97 -15 -53
-45 -84 -1357 -1397 -964 -964 -1354 -1348 -1385 -1363 -140 -68 -320 -3 -385
139 -31 67 -30 180 2 242 30 59 2657 2691 2716 2722 22 12 51 25 65 29 40 13
142 3 192 -19z"/>
  </g>
</svg>
