<svg width="92" height="28" viewBox="0 0 92 28" fill="none" xmlns="http://www.w3.org/2000/svg">
  <g clip-path="url(#clip0_32_439)">
    <path d="M0.0113525 6.56399C0.0113525 6.54189 0.0167807 6.52531 0.0167807 6.50873C0.0167807 6.52531 0.0113525 6.54741 0.0113525 6.56399Z" fill="#9C6CFE"/>
    <path d="M0.00585938 6.71323V6.7906C0.00585938 6.71876 0.00585938 6.64692 0.0112876 6.5806C0.00585938 6.62481 0.00585938 6.66902 0.00585938 6.71323Z" fill="#9C6CFE"/>
    <path d="M0.695183 23.337C0.689754 23.3315 0.689754 23.3315 0.684326 23.326C0.684326 23.326 0.689754 23.3315 0.695183 23.337Z" fill="#9C6CFE"/>
    <path opacity="0.8" d="M13.6089 0.0869351C13.6089 0.0869351 1.2652 4.70158 1.48775 4.61868C0.803802 5.11607 1.02093 6.25453 1.79716 6.56402L8.14272 8.91832C8.87552 9.18911 9.35863 9.89651 9.35863 10.6923V18.9987L14.0703 17.2523C14.9117 16.9428 15.4708 16.1249 15.4708 15.213V1.41883C15.4762 0.435106 14.5154 -0.250183 13.6089 0.0869351Z" fill="white"/>
    <path d="M0.00586245 21.0048C0.00586245 21.1927 -0.0104221 21.4414 0.0112906 21.7233C0.0112906 21.6901 0.00586245 21.6514 0.00586245 21.6183V21.0048Z" fill="#9C6CFE"/>
    <path d="M0.68431 23.3259C0.678882 23.3204 0.673454 23.3094 0.662598 23.3038C0.668026 23.3094 0.678882 23.3149 0.68431 23.3259Z" fill="#08D4E8"/>
    <path opacity="0.7" d="M1.59087 23.9228L6.87793 25.8848C8.08842 26.3324 9.36404 25.4205 9.36404 24.1108V18.9987L2.49195 21.5464C0.912348 22.1875 0.868923 23.3868 1.59087 23.9228Z" fill="white"/>
    <path d="M0.0764259 22.2151C0.0384285 22.0438 0.0167158 21.878 0.00585938 21.7232C0.0167158 21.8946 0.0384285 22.0548 0.0764259 22.2151Z" fill="#08D4E8"/>
    <path d="M8.14272 8.92387L1.79716 6.56957C1.0155 6.25456 0.803804 5.12162 1.48776 4.62424C1.2652 4.70161 1.06979 4.79556 0.901511 4.90056C0.288125 5.199 0.0764259 5.86218 0.0167158 6.50325C0.0167158 6.52536 0.0112876 6.54194 0.0112876 6.55852C0.0112876 6.56405 0.0112876 6.56957 0.0112876 6.5751C0.00585938 6.64142 0.00585938 6.71326 0.00585938 6.78511V20.9993V21.6128C0.00585938 21.6459 0.00585938 21.6846 0.0112876 21.7178C0.022144 21.8725 0.0438567 22.0383 0.0818541 22.2096C0.18499 22.6186 0.385833 22.9944 0.668099 23.2984C0.673527 23.3039 0.678955 23.3149 0.689812 23.3205C0.69524 23.326 0.69524 23.326 0.700668 23.3315C0.923224 23.5526 1.21092 23.7515 1.59632 23.9228C0.87437 23.3868 0.917796 22.1875 2.4974 21.5464L9.36406 18.9987V10.6924C9.35863 9.90206 8.87553 9.19467 8.14272 8.92387Z" fill="white"/>
    <path d="M23.201 19H24.577V14.568H26.817C29.489 14.568 31.169 13.4 31.169 11.256C31.169 9.112 29.489 7.96 26.817 7.96H23.201V19ZM26.977 9.112C28.689 9.112 29.681 9.832 29.681 11.256C29.681 12.68 28.689 13.416 26.977 13.416H24.577V9.112H26.977ZM37.5575 13.832V14.088L35.3175 14.328C33.6215 14.504 32.1815 15.032 32.1815 16.68C32.1815 18.232 33.4295 19.16 34.9655 19.16C36.2135 19.16 37.1575 18.536 37.5735 17.432H37.6055V19H38.8855V14.136C38.8855 11.72 37.4295 10.84 35.6535 10.84C33.6215 10.84 32.5495 12.056 32.4535 13.528H33.7815C33.8295 12.584 34.4375 11.896 35.6535 11.896C36.9015 11.896 37.5575 12.632 37.5575 13.832ZM35.2855 18.104C34.3415 18.104 33.6215 17.544 33.6215 16.744C33.6215 15.896 34.2295 15.464 35.4295 15.336L37.5575 15.096V15.528C37.5575 17.256 36.6935 18.104 35.2855 18.104ZM48.0456 11H46.6696L44.1256 18.104L41.5336 11H40.1576L42.7816 18.2H44.0936L42.8296 21.72H44.2056L48.0456 11ZM56.4515 19V17.944H50.8835L53.8755 14.904C55.5395 13.208 56.3395 12.344 56.3395 10.952C56.3395 9.336 54.9955 7.8 52.6755 7.8C50.8035 7.8 49.1075 9.08 49.1075 11.48H50.4355C50.4355 9.832 51.2515 8.856 52.6755 8.856C54.2755 8.856 54.9475 10.024 54.9475 11.112C54.9475 12.056 54.5315 12.504 53.3955 13.672L49.0275 18.104V19H56.4515ZM65.1326 17.848H60.0926V7.96H58.7166V19H65.1326V17.848ZM69.7261 19.16C72.1261 19.16 73.5661 17.128 73.5661 15C73.5661 12.872 72.1261 10.84 69.7261 10.84C67.3261 10.84 65.8861 12.872 65.8861 15C65.8861 17.128 67.3261 19.16 69.7261 19.16ZM69.7261 18.104C68.1901 18.104 67.3261 16.776 67.3261 15C67.3261 13.224 68.1901 11.896 69.7261 11.896C71.2621 11.896 72.1261 13.224 72.1261 15C72.1261 16.776 71.2621 18.104 69.7261 18.104ZM80.3231 13.832V14.088L78.0831 14.328C76.3871 14.504 74.9471 15.032 74.9471 16.68C74.9471 18.232 76.1951 19.16 77.7311 19.16C78.9791 19.16 79.9231 18.536 80.3391 17.432H80.3711V19H81.6511V14.136C81.6511 11.72 80.1951 10.84 78.4191 10.84C76.3871 10.84 75.3151 12.056 75.2191 13.528H76.5471C76.5951 12.584 77.2031 11.896 78.4191 11.896C79.6671 11.896 80.3231 12.632 80.3231 13.832ZM78.0511 18.104C77.1071 18.104 76.3871 17.544 76.3871 16.744C76.3871 15.896 76.9951 15.464 78.1951 15.336L80.3231 15.096V15.528C80.3231 17.256 79.4591 18.104 78.0511 18.104ZM83.5431 15C83.5431 17.208 84.7111 19.16 86.9831 19.16C88.2471 19.16 89.2071 18.456 89.6551 17.304H89.6871V19H91.0151V7.96H89.6871V12.696H89.6551C89.2071 11.544 88.2471 10.84 86.9831 10.84C84.7111 10.84 83.5431 12.792 83.5431 15ZM84.9831 15C84.9831 13.224 85.8471 11.896 87.3831 11.896C88.9191 11.896 89.7511 13.224 89.7511 15C89.7511 16.776 88.9191 18.104 87.3831 18.104C85.8471 18.104 84.9831 16.776 84.9831 15Z" fill="white"/>
  </g>
  <defs>
    <clipPath id="clip0_32_439">
      <rect width="92" height="27" fill="white" transform="translate(0 0.5)"/>
    </clipPath>
  </defs>
</svg>
